<svg width="176" height="130" viewBox="0 0 176 130" fill="none" xmlns="http://www.w3.org/2000/svg">
<g clip-path="url(#clip0_3_61)">
<mask id="mask0_3_61" style="mask-type:luminance" maskUnits="userSpaceOnUse" x="0" y="0" width="176" height="130">
<path d="M176 0H0V130H176V0Z" fill="white"/>
</mask>
<g mask="url(#mask0_3_61)">
<path d="M23.5697 0.156982C26.6514 -0.754843 30.9119 2.49263 32.3029 5.06873C34.0754 8.35176 32.8969 11.6341 31.9662 14.9233C33.4887 17.2936 37.7914 22.2592 39.7444 24.6572C41.6309 23.7375 42.3322 23.6237 44.3479 23.4262C46.2437 24.602 49.7994 28.4767 51.4709 30.2135C60.4569 26.037 66.1032 23.7745 76.1822 22.369C90.9544 20.309 114.643 21.8805 126.875 30.9365C128.889 28.6667 131.206 24.696 133.901 23.7197C135.716 23.0617 136.93 23.8515 138.526 24.6405C141.418 21.4652 143.661 18.856 146.224 15.3879C145.497 10.8679 144.062 6.55468 147.631 2.61383C150.651 -0.576818 156.839 -0.502293 159.912 2.57338C163.856 6.52148 163.515 11.7755 159.792 15.73C157.503 18.1608 153.798 17.698 150.718 17.6547C147.26 21.0235 144.794 24.2452 141.881 28.055C142.815 28.7957 144.497 29.9382 144.666 31.0977C144.219 33.06 140.21 37.438 138.782 38.9865C144.079 45.0252 148.89 50.57 152.51 57.7807C153.46 59.0867 157.181 59.0437 158.628 59.3382C172.14 62.0885 175.291 80.041 173.113 91.5112C171.892 97.943 167.066 108.187 159.83 109.298C152.891 110.363 153.285 108.128 149.226 115.217C142.447 124.376 128.285 127.42 117.596 128.799C114.216 129.235 110.985 129.323 108.048 131.355C109.604 131.497 112.612 131.779 113.983 132.294C115.988 132.98 118.354 134.565 120.451 134.883C125.67 135.674 130.532 136.266 135.688 137.544C141.089 138.884 146.415 140.513 151.641 142.426C154.608 143.493 157.568 144.766 160.541 145.734C170.026 139.32 182.11 135.749 193.606 140.952C199.326 143.542 206.252 150.796 210.817 155.101C212.884 157.053 213.292 162.449 212.802 165.196C212.392 169.1 204.398 181.636 201.122 183.198C192.539 187.288 194.409 184.554 192.237 195.996C191.188 201.548 190.168 207.105 189.178 212.668C186.965 224.921 186.585 233.778 175.817 241.595C175.001 242.143 171.832 244.213 171.578 244.783C168.105 252.528 168.285 253.83 159.118 253.383C150.946 252.985 145.736 255.175 141.938 245.72C139.309 246.408 135.583 246.568 132.783 246.78C127.128 247.26 121.458 247.565 115.784 247.69C89.1219 248.47 63.5434 248.778 36.9589 246.255C33.4459 247.848 34.2037 251.775 29.7637 252.59C25.5927 253.358 21.8954 253.218 17.7672 253.32C11.0242 253.488 8.68314 252.233 7.27564 245.083C4.38439 242.613 1.12689 241.392 -1.93486 238.435C-7.81561 232.756 -8.74461 225.162 -10.2436 217.547L-14.3371 196.028C-14.8488 193.359 -15.3161 190.65 -15.8153 187.846C-16.0411 184.445 -20.7768 184.944 -22.4573 183.487C-28.6125 178.149 -40.2818 164.094 -33.406 155.896C-30.1392 152.002 -20.9654 143.654 -16.7453 141.23C-14.9463 140.208 -12.9853 139.503 -10.9473 139.144C-8.20636 138.648 -5.78586 138.706 -3.06586 138.726C5.96264 138.791 10.5327 141.176 17.6564 146.101C26.4004 141.305 49.9279 134.423 59.4929 135.156C64.9272 132.178 63.2812 132.249 70.2894 131.346C65.9299 128.845 58.3169 128.787 53.0717 127.611C48.0704 126.491 44.6249 125.654 39.8544 123.385C35.9734 121.538 32.6537 119.268 29.8924 115.966C28.8749 114.749 26.5112 110.692 25.4964 110.314C21.0307 108.704 17.5527 110.642 13.6229 106.88C1.67539 95.44 1.80839 75.7097 12.0852 63.2532C15.2449 59.4232 20.7029 59.0715 25.2899 58.8022C27.3457 55.2875 29.2609 51.6262 31.6197 48.2927C33.9642 44.9792 36.8337 42.0417 39.5607 39.0292C37.9724 37.3585 35.3332 34.7065 34.6429 32.5552C33.9577 30.4195 34.8154 29.3485 35.7989 27.521C33.9112 24.1742 30.6057 20.5267 27.7407 18.0064C25.0609 17.8221 21.8314 17.7011 19.4799 16.3494C14.0914 13.2523 14.6837 5.65838 19.0522 1.97136C20.4642 0.779507 21.8332 0.538632 23.5697 0.156982ZM154.616 14.011C157.111 12.9164 157.797 12.6254 158.823 9.99691C158.899 9.80243 158.974 9.60738 159.047 9.41178C158.085 6.52526 156.959 3.61503 153.321 4.15526C151.643 4.53016 150.898 4.81691 149.911 6.34111C149.173 7.50386 148.943 8.91803 149.275 10.2547C149.587 11.5209 150.404 12.6038 151.537 13.2509C152.32 13.7088 153.723 14.1056 154.616 14.011ZM21.7244 5.07866C19.9892 8.04508 18.8692 9.56103 21.1514 12.6317C22.5984 13.3877 23.3362 13.6959 24.9837 13.8088C30.6637 13.074 30.3914 5.31188 24.6627 3.82441L21.7244 5.07866ZM-20.2708 180.698C-17.8821 180.507 -10.7406 181.374 -9.69136 178.351C-9.70736 176.929 -10.9888 176.164 -11.9073 175.233C-13.0161 174.109 -13.3603 173.9 -14.9378 173.813C-18.3213 173.73 -22.3793 177.727 -20.2708 180.698ZM205.358 156.289C200.265 158.982 201.659 164.538 206.857 165.98C207.917 165.974 207.534 166.097 208.372 165.588C210.072 162.848 208.994 156.18 205.358 156.289ZM11.6519 78.198C11.7027 75.8355 11.7039 73.2032 11.8947 70.869C10.1262 73.8497 9.56064 75.7392 8.86514 79.1927C8.37189 86.8527 8.24464 91.0992 11.8799 97.8817C11.5569 91.496 12.0619 84.209 11.6519 78.198ZM-27.0649 165.421C-25.1201 164.268 -24.1306 162.132 -23.2803 160.086C-24.0813 159.147 -26.6344 156.025 -27.7008 155.807C-29.7578 157.127 -30.5682 157.836 -31.069 160.373C-31.6957 163.547 -31.3581 167.321 -27.0649 165.421ZM167.374 72.4197C166.55 74.8577 166.97 81.231 166.894 84.1447C166.858 85.519 166.855 95.278 167.111 95.805C167.719 95.455 167.543 95.5165 167.905 94.7432C170.855 88.6845 170.459 79.715 168.2 73.5037C167.893 72.6592 168.108 72.9525 167.374 72.4197Z" fill="#FEFEFE"/>
<path d="M84.5117 25.7275C85.1344 25.6197 87.1677 25.5772 87.8674 25.5777C106.468 25.5932 123.432 30.3342 137.079 43.5035C148.53 54.5527 152.292 67.4185 152.709 83.0252C152.987 93.429 151.018 107.318 143.527 115.118C134.266 124.761 107.072 126.037 94.1314 126.138C79.1612 126.363 48.0692 126.104 35.9849 116.054C28.0547 108.954 26.9477 98.7337 26.1314 89.0767C22.9674 51.6485 48.1044 28.1512 84.5117 25.7275Z" fill="#373736"/>
<path d="M77.0692 51.9772C80.3177 51.766 84.0109 51.8547 87.2859 51.8672C100.941 51.938 115.311 51.9735 128.525 55.7385C135.181 57.6345 141.883 63.7345 143.897 70.4207C148.21 84.735 145.857 103.857 128.674 107.622C119.566 109.618 110.768 109.93 101.503 110.321C84.2072 110.519 66.6692 110.689 49.4967 107.444C26.9229 103.177 27.8569 63.9035 47.5502 56.483C55.6872 53.4167 68.1434 52.6077 77.0692 51.9772Z" fill="#FEFEFE"/>
<path d="M59.0536 65.4102C68.3576 65.8072 75.5726 73.6807 75.1573 82.984C74.7421 92.2872 66.8546 99.4867 57.5523 99.0535C48.2756 98.6212 41.1001 90.76 41.5141 81.4825C41.9281 72.205 49.7753 65.0142 59.0536 65.4102Z" fill="#373736"/>
<path d="M57.6404 70.821C63.9864 70.4717 69.4061 75.3497 69.7251 81.6972C70.0444 88.0447 65.1409 93.4415 58.7919 93.7307C52.4851 94.018 47.1321 89.1542 46.8151 82.849C46.4981 76.5435 51.3366 71.1675 57.6404 70.821Z" fill="#FEFEFE"/>
<path d="M119.769 65.399C128.99 64.8382 136.936 71.822 137.564 81.0385C138.192 90.2552 131.266 98.252 122.054 98.9467C112.747 99.6487 104.649 92.6357 104.015 83.3237C103.381 74.012 110.453 65.9655 119.769 65.399Z" fill="#373736"/>
<path d="M119.56 70.871C125.8 70.213 131.41 74.691 132.151 80.9212C132.892 87.1512 128.489 92.8205 122.269 93.6442C118.171 94.187 114.099 92.4825 111.609 89.183C109.119 85.8835 108.598 81.4995 110.244 77.7082C111.891 73.9167 115.45 71.3045 119.56 70.871Z" fill="#FEFEFE"/>
</g>
</g>
<defs>
<clipPath id="clip0_3_61">
<rect width="176" height="130" fill="white"/>
</clipPath>
</defs>
</svg>
