<svg width="249" height="264" viewBox="0 0 249 264" fill="none" xmlns="http://www.w3.org/2000/svg">
<g clip-path="url(#clip0_1_509)">
<mask id="mask0_1_509" style="mask-type:luminance" maskUnits="userSpaceOnUse" x="0" y="0" width="249" height="264">
<path d="M249 0H0V264H249V0Z" fill="white"/>
</mask>
<g mask="url(#mask0_1_509)">
<path d="M59.0779 0.156982C62.1597 -0.754843 66.4202 2.49263 67.8112 5.06873C69.5837 8.35176 68.4052 11.6341 67.4744 14.9233C68.9969 17.2936 73.2997 22.2592 75.2527 24.6572C77.1392 23.7375 77.8404 23.6237 79.8562 23.4262C81.7519 24.602 85.3077 28.4767 86.9792 30.2135C95.9652 26.037 101.611 23.7745 111.69 22.369C126.463 20.309 150.151 21.8805 162.383 30.9365C164.397 28.6667 166.714 24.696 169.409 23.7197C171.225 23.0617 172.439 23.8515 174.035 24.6405C176.927 21.4652 179.17 18.856 181.732 15.3879C181.005 10.8679 179.571 6.55468 183.14 2.61383C186.16 -0.576818 192.347 -0.502293 195.42 2.57338C199.364 6.52148 199.023 11.7755 195.3 15.73C193.012 18.1608 189.306 17.698 186.227 17.6547C182.768 21.0235 180.302 24.2452 177.39 28.055C178.323 28.7957 180.005 29.9382 180.175 31.0977C179.727 33.06 175.719 37.438 174.291 38.9865C179.587 45.0252 184.399 50.57 188.018 57.7807C188.968 59.0867 192.689 59.0437 194.136 59.3382C207.649 62.0885 210.799 80.041 208.622 91.5112C207.401 97.943 202.575 108.187 195.338 109.298C188.399 110.363 188.793 108.128 184.734 115.217C177.956 124.376 163.793 127.42 153.104 128.799C149.724 129.235 146.493 129.323 143.556 131.355C145.112 131.497 148.121 131.779 149.491 132.294C151.496 132.98 153.862 134.565 155.959 134.883C161.179 135.674 166.04 136.266 171.196 137.544C176.598 138.884 181.923 140.513 187.15 142.426C190.116 143.493 193.076 144.766 196.049 145.734C205.535 139.32 217.618 135.749 229.114 140.952C234.835 143.542 241.76 150.796 246.325 155.101C248.392 157.053 248.8 162.449 248.31 165.196C247.9 169.1 239.906 181.636 236.63 183.198C228.047 187.288 229.917 184.554 227.746 195.996C226.696 201.548 225.676 207.105 224.686 212.668C222.474 224.921 222.093 233.778 211.325 241.595C210.509 242.143 207.341 244.213 207.086 244.783C203.614 252.528 203.793 253.83 194.626 253.383C186.454 252.985 181.244 255.175 177.446 245.72C174.818 246.408 171.091 246.568 168.292 246.78C162.636 247.26 156.967 247.565 151.292 247.69C124.63 248.47 99.0517 248.778 72.4672 246.255C68.9542 247.848 69.7119 251.775 65.2719 252.59C61.1009 253.358 57.4037 253.218 53.2754 253.32C46.5324 253.488 44.1914 252.233 42.7839 245.083C39.8927 242.613 36.6352 241.392 33.5734 238.435C27.6927 232.756 26.7637 225.162 25.2647 217.547L21.1712 196.028C20.6594 193.359 20.1922 190.65 19.6929 187.846C19.4672 184.445 14.7314 184.944 13.051 183.487C6.89573 178.149 -4.77354 164.094 2.10228 155.896C5.36908 152.002 14.5429 143.654 18.7629 141.23C20.5619 140.208 22.5229 139.503 24.5609 139.144C27.3019 138.648 29.7224 138.706 32.4424 138.726C41.4709 138.791 46.0409 141.176 53.1647 146.101C61.9087 141.305 85.4362 134.423 95.0012 135.156C100.435 132.178 98.7894 132.249 105.798 131.346C101.438 128.845 93.8252 128.787 88.5799 127.611C83.5787 126.491 80.1332 125.654 75.3627 123.385C71.4817 121.538 68.1619 119.268 65.4007 115.966C64.3832 114.749 62.0194 110.692 61.0047 110.314C56.5389 108.704 53.0609 110.642 49.1312 106.88C37.1837 95.44 37.3167 75.7097 47.5934 63.2532C50.7532 59.4232 56.2112 59.0715 60.7982 58.8022C62.8539 55.2875 64.7692 51.6262 67.1279 48.2927C69.4724 44.9792 72.3419 42.0417 75.0689 39.0292C73.4807 37.3585 70.8414 34.7065 70.1512 32.5552C69.4659 30.4195 70.3237 29.3485 71.3072 27.521C69.4194 24.1742 66.1139 20.5267 63.2489 18.0064C60.5692 17.8221 57.3397 17.7011 54.9882 16.3494C49.5997 13.2523 50.1919 5.65838 54.5604 1.97136C55.9724 0.779507 57.3414 0.538632 59.0779 0.156982ZM190.125 14.011C192.619 12.9164 193.305 12.6254 194.331 9.99691C194.408 9.80243 194.482 9.60738 194.556 9.41178C193.593 6.52526 192.467 3.61503 188.829 4.15526C187.152 4.53016 186.406 4.81691 185.419 6.34111C184.681 7.50386 184.451 8.91803 184.783 10.2547C185.095 11.5209 185.913 12.6038 187.045 13.2509C187.828 13.7088 189.231 14.1056 190.125 14.011ZM57.2327 5.07866C55.4974 8.04508 54.3774 9.56103 56.6597 12.6317C58.1067 13.3877 58.8444 13.6959 60.4919 13.8088C66.1719 13.074 65.8997 5.31188 60.1709 3.82441L57.2327 5.07866ZM15.2375 180.698C17.6262 180.507 24.7677 181.374 25.8169 178.351C25.8009 176.929 24.5194 176.164 23.6009 175.233C22.4922 174.109 22.1479 173.9 20.5704 173.813C17.1869 173.73 13.1289 177.727 15.2375 180.698ZM240.867 156.289C235.773 158.982 237.168 164.538 242.365 165.98C243.425 165.974 243.042 166.097 243.88 165.588C245.58 162.848 244.502 156.18 240.867 156.289ZM47.1602 78.198C47.2109 75.8355 47.2122 73.2032 47.4029 70.869C45.6344 73.8497 45.0689 75.7392 44.3734 79.1927C43.8802 86.8527 43.7529 91.0992 47.3882 97.8817C47.0652 91.496 47.5702 84.209 47.1602 78.198ZM8.44333 165.421C10.3881 164.268 11.3776 162.132 12.2279 160.086C11.427 159.147 8.87386 156.025 7.80748 155.807C5.75048 157.127 4.94006 157.836 4.43926 160.373C3.81256 163.547 4.15013 167.321 8.44333 165.421ZM202.882 72.4197C202.058 74.8577 202.478 81.231 202.402 84.1447C202.366 85.519 202.363 95.278 202.62 95.805C203.227 95.455 203.051 95.5165 203.413 94.7432C206.363 88.6845 205.967 79.715 203.709 73.5037C203.401 72.6592 203.616 72.9525 202.882 72.4197Z" fill="#2F7A50"/>
<path d="M120.02 25.7275C120.643 25.6197 122.676 25.5772 123.376 25.5777C141.976 25.5932 158.94 30.3342 172.588 43.5035C184.038 54.5527 187.8 67.4185 188.218 83.0252C188.496 93.429 186.526 107.318 179.035 115.118C169.774 124.761 142.58 126.037 129.64 126.138C114.669 126.363 83.5774 126.104 71.4932 116.054C63.5629 108.954 62.4559 98.7337 61.6397 89.0767C58.4757 51.6485 83.6127 28.1512 120.02 25.7275Z" fill="#FEFEFE"/>
<path d="M112.577 51.9772C115.826 51.766 119.519 51.8547 122.794 51.8672C136.449 51.938 150.819 51.9735 164.034 55.7385C170.689 57.6345 177.391 63.7345 179.405 70.4207C183.718 84.735 181.366 103.857 164.183 107.622C155.074 109.618 146.276 109.93 137.011 110.321C119.715 110.519 102.177 110.689 85.0048 107.444C62.4311 103.177 63.3651 63.9035 83.0583 56.483C91.1953 53.4167 103.652 52.6077 112.577 51.9772Z" fill="#2F7A50"/>
<path d="M94.5619 65.4102C103.866 65.8072 111.081 73.6807 110.666 82.984C110.25 92.2872 102.363 99.4867 93.0607 99.0535C83.7839 98.6212 76.6084 90.76 77.0224 81.4825C77.4364 72.205 85.2837 65.0142 94.5619 65.4102Z" fill="#FEFEFE"/>
<path d="M93.1486 70.821C99.4946 70.4717 104.914 75.3497 105.233 81.6972C105.553 88.0447 100.649 93.4415 94.3001 93.7307C87.9933 94.018 82.6403 89.1542 82.3233 82.849C82.0063 76.5435 86.8448 71.1675 93.1486 70.821Z" fill="#2F7A50"/>
<path d="M155.277 65.399C164.498 64.8382 172.444 71.822 173.072 81.0385C173.7 90.2552 166.774 98.252 157.562 98.9467C148.255 99.6487 140.158 92.6357 139.523 83.3237C138.889 74.012 145.961 65.9655 155.277 65.399Z" fill="#FEFEFE"/>
<path d="M155.069 70.871C161.308 70.213 166.918 74.691 167.659 80.9212C168.4 87.1512 163.997 92.8205 157.777 93.6442C153.68 94.187 149.607 92.4825 147.117 89.183C144.628 85.8835 144.106 81.4995 145.753 77.7082C147.399 73.9167 150.958 71.3045 155.069 70.871Z" fill="#2F7A50"/>
<path d="M108.487 196.475C112.271 196.185 117.583 196.35 121.519 196.338C130.168 196.313 139.025 196.252 147.643 196.741C158.209 197.34 172.04 197.324 182.312 199.295C182.459 199.812 182.584 200.335 182.686 200.862C184.501 210.402 184.745 233.119 179.249 241.114C176.526 241.718 171.72 242.11 168.809 242.396C159.438 243.292 150.035 243.82 140.622 243.98C138.693 244.183 130.123 244.152 128.038 244.141C117.38 244.086 76.0661 243.937 68.1283 240.298C66.1508 235.258 65.1171 230.322 64.9403 224.907C64.8153 221.07 64.4768 201.246 66.7963 199.228C68.8951 197.403 103.922 196.619 108.487 196.475Z" fill="#FEFEFE"/>
<path d="M213.503 142.412C213.7 142.443 214.071 142.625 214.274 142.712C214.207 143.499 211.383 146.006 210.709 146.836C206.833 151.608 203.29 158.126 203.999 164.482C204.128 165.639 204.423 166.848 205.014 167.86C208.065 173.084 218.443 180.494 223.226 184.342C223.936 184.913 224.509 185.449 224.598 186.389C225.044 191.092 218.283 224.22 216.295 229.793C215.791 231.205 214.868 232.363 213.916 233.499C210.202 237.933 206.336 240.535 200.492 241.046C197.593 241.171 187.323 241.671 185.554 239.637C185.432 238.795 185.889 237.95 186.144 237.107C188.662 228.78 189.403 202.134 185.401 195.09C183.799 194.684 182.945 194.459 181.4 193.837C181.343 191.075 181.759 187.956 182.081 185.203C183.153 176.029 184.467 167.749 189.529 159.798C195.304 150.727 203.012 144.838 213.503 142.412Z" fill="#FEFEFE"/>
<path d="M34.6635 142.641C39.1407 142.861 45.9467 146.151 49.4685 148.792C60.4587 157.033 64.718 169.938 66.5497 183.046C67.057 186.675 67.2442 190.307 67.7597 193.861C65.7597 194.407 64.4162 194.772 62.5382 195.62C59.7417 206.895 59.7697 219.53 60.9642 231.036C61.3077 234.344 62.4415 237.662 62.5507 240.859C58.602 241.124 52.7825 241.349 48.873 241.018C31.2935 239.808 30.2465 222.015 27.8042 208.466C26.59 201.73 23.994 191.494 24.068 184.949L24.194 184.887C28.8307 182.528 43.0892 171.173 44.6767 165.848C46.6102 158.665 42.229 151.913 37.8975 146.593C37.175 145.706 35.0142 143.384 34.6635 142.641Z" fill="#FEFEFE"/>
<path d="M95.3092 136.514C96.9192 137.471 98.6229 139.565 100.61 140.184C111.502 143.577 146.086 145.458 153.778 136.347C155.027 148.607 166 159.487 176.019 165.56C177.47 166.439 178.904 167.463 180.304 168.422C180.04 171.726 178.924 176.7 178.381 180.199C177.704 184.558 177.326 189.071 176.587 193.329C172.31 193.825 162.283 192.844 157.856 192.21C157.999 191.449 158.187 190.663 158.423 189.924C161.641 179.869 163.661 167.706 156.625 158.735C155.208 156.929 153.756 155.707 151.947 154.299C151.556 154.03 151.154 153.777 150.742 153.541C143.036 149.076 132.811 152.872 124.674 155.033C117.348 153.237 108.598 149.898 101.187 152.279C91.8714 155.273 87.3444 165.214 87.6339 174.476C87.8402 181.068 89.3627 186.058 91.2699 192.293C86.1504 192.54 77.1862 193.221 72.2959 193.957C71.3344 188.752 71.2419 182.113 69.9882 176.686C69.6157 175.074 68.4789 170.528 68.3584 169.359C68.2092 167.91 74.2642 164.688 75.8079 163.628C77.1199 162.718 78.3799 161.734 79.5822 160.683C86.7197 154.512 94.5747 146.457 95.3092 136.514Z" fill="#FEFEFE"/>
<path d="M65.8473 145.103C65.9418 145.091 66.3875 145.169 66.5133 145.187C67.6115 146.051 68.471 147.293 69.2008 148.589C70.569 151.019 72.0553 154.322 72.2158 157.149C72.2365 157.514 71.3558 160.695 71.2148 161.212C71.0593 161.374 70.8968 161.53 70.728 161.679C68.7185 163.441 67.352 164.616 65.4775 162.21C62.7665 156.523 60.8045 153.786 56.8345 148.925C59.619 147.582 62.9588 146.281 65.8473 145.103Z" fill="#FEFEFE"/>
<path d="M183.088 144.838C186.786 146.757 188.33 146.676 191.774 149.405C188.744 152.403 185.642 158.091 183.344 161.93C182.861 162.663 181.971 163.697 181.396 164.407C180.086 163.186 178.789 161.951 177.506 160.702C176.376 153.852 178.614 149.668 183.088 144.838Z" fill="#FEFEFE"/>
<path d="M219.878 144.272C220.14 144.286 220.397 144.313 220.631 144.443C224.185 146.424 222.747 151.33 221.174 154.038C218.855 154.921 218.468 154.944 216.089 154.585C214.293 154.159 210.502 153.596 212.64 151.083C214.772 148.578 217.414 146.469 219.878 144.272Z" fill="#FEFEFE"/>
<path d="M27.224 145.127C31.3653 144.84 34.98 149.23 37.0545 152.404C36.3903 152.978 35.5108 153.623 34.802 154.171C33.993 154.368 33.1763 154.53 32.3538 154.657C26.5368 155.528 24.626 148.414 27.224 145.127Z" fill="#FEFEFE"/>
<path d="M229.233 173.159C230.189 173.534 230.742 173.964 231.496 174.614C237.062 179.412 233.743 181.086 228.249 181.137C226.711 181.113 224.55 180.724 223.492 179.54C222.457 176.345 226.915 174.329 229.233 173.159Z" fill="#FEFEFE"/>
<path d="M209.423 159.232C211.942 159.366 214.381 160.906 215.588 163.113C215.165 166.262 214.858 166.83 213.613 169.796L213.068 169.986C209.707 169.027 206.345 162.332 209.423 159.232Z" fill="#FEFEFE"/>
<path d="M37.6279 159.651C38.9077 159.543 39.4449 159.386 40.4769 160.061C42.3494 162.917 39.2584 167.487 36.8132 169.174C36.5512 169.262 36.0932 169.339 35.8064 169.398C33.4082 168.609 33.5752 164.783 33.6867 162.748C35.0457 160.763 35.3527 160.343 37.6279 159.651Z" fill="#FEFEFE"/>
<path d="M86.6824 198.607C86.6824 189.771 93.8458 182.607 102.682 182.607C111.519 182.607 118.682 189.771 118.682 198.607V250.673C118.682 259.51 111.519 264 102.682 264C93.8458 264 86.6824 259.51 86.6824 250.673V198.607Z" fill="white"/>
<path d="M114.682 249V198.214C114.682 191.75 109.31 186.509 102.682 186.509C96.055 186.509 90.6824 191.75 90.6824 198.214V249C90.6824 255.465 96.055 260.706 102.682 260.706V264.607C93.8458 264.607 86.6824 257.62 86.6824 249V198.214C86.6824 189.595 93.8458 182.607 102.682 182.607C111.519 182.607 118.682 189.595 118.682 198.214V249C118.682 257.62 111.519 264.607 102.682 264.607V260.706C109.31 260.706 114.682 255.465 114.682 249Z" fill="#2F7A50"/>
<path d="M126.682 198.611C126.682 189.774 133.846 182.611 142.682 182.611C151.519 182.611 158.682 189.774 158.682 198.611V250.066C158.682 258.903 142.682 263 142.682 263C142.682 263 126.682 258.903 126.682 250.066V198.611Z" fill="white"/>
<path d="M154.682 248.89V198.332C154.682 191.82 149.31 186.541 142.682 186.541C136.055 186.541 130.682 191.82 130.682 198.332V248.89C130.682 255.402 136.055 260.681 142.682 260.681V263C133.846 263 126.682 257.572 126.682 248.89V198.332C126.682 189.649 133.846 182.611 142.682 182.611C151.519 182.611 158.682 189.649 158.682 198.332V248.89C158.682 257.572 151.519 263 142.682 263V260.681C149.31 260.681 154.682 255.402 154.682 248.89Z" fill="#2F7A50"/>
<path d="M126.682 264.615C125.647 264.615 124.795 263.828 124.693 262.819L124.682 262.615V260.104C124.682 251.55 131.617 244.615 140.171 244.615H144.441L144.886 244.621C154.203 244.857 161.682 252.483 161.682 261.856C161.682 263.38 160.447 264.615 158.924 264.615H126.682ZM137.5 252.5C137.372 244.746 142.785 248 135 248L134 249.5C127.103 249.5 143.5 240.602 143.5 247.5L137.5 252.5Z" fill="#2F7A50"/>
<path d="M128.916 259.849C128.787 257.768 130.369 255.977 132.449 255.848C134.53 255.72 136.321 257.302 136.45 259.382L136.458 259.515C136.501 260.205 135.976 260.798 135.287 260.841L130.249 261.152C129.56 261.195 128.966 260.671 128.924 259.982L128.916 259.849Z" fill="white"/>
<path d="M128.924 259.981C128.964 260.627 129.488 261.129 130.121 261.154L130.249 261.153L135.287 260.841L135.414 260.826C135.998 260.73 136.436 260.234 136.459 259.643L136.458 259.515L136.45 259.382C136.325 257.367 134.64 255.819 132.644 255.841L132.45 255.848C130.369 255.977 128.787 257.768 128.916 259.849L128.924 259.981ZM139.452 259.33C139.597 261.673 137.815 263.69 135.472 263.835L130.434 264.147C128.091 264.292 126.075 262.509 125.93 260.167L125.921 260.034C125.69 256.3 128.53 253.085 132.264 252.854C135.998 252.623 139.213 255.463 139.444 259.197L139.452 259.33Z" fill="#2F7A50"/>
<path d="M94.1824 249.615C94.1823 242.718 111.091 247.615 104.194 247.615H99.9236C92.139 247.615 115.811 254.103 115.682 261.856L107.182 261.615L94.1824 249.615ZM119.682 262.615L119.672 262.819C119.569 263.828 118.718 264.615 117.682 264.615H85.4412L85.1589 264.601C83.7679 264.459 82.6824 263.285 82.6824 261.856C82.6825 252.334 90.4016 244.615 99.9236 244.615H104.194L104.594 244.62C112.963 244.832 119.682 251.683 119.682 260.104V262.615Z" fill="#2F7A50"/>
<path d="M86.9155 259.849C86.7868 257.768 88.3689 255.977 90.4494 255.848C92.5299 255.72 94.3209 257.302 94.4496 259.382L94.4579 259.515C94.5005 260.205 93.9764 260.798 93.2871 260.841L88.249 261.152C87.5598 261.195 86.9664 260.671 86.9238 259.982L86.9155 259.849Z" fill="white"/>
<path d="M86.9239 259.981C86.9639 260.627 87.4876 261.129 88.1207 261.154L88.2488 261.153L93.287 260.841L93.4143 260.826C93.9981 260.73 94.4362 260.234 94.4594 259.643L94.4583 259.515L94.4501 259.382C94.3254 257.367 92.6405 255.819 90.644 255.841L90.4497 255.848C88.3692 255.977 86.7869 257.768 86.9157 259.849L86.9239 259.981ZM97.4526 259.33C97.5976 261.673 95.8153 263.69 93.4723 263.835L88.4341 264.147C86.0913 264.292 84.0746 262.509 83.9296 260.167L83.9214 260.034C83.6903 256.3 86.5302 253.085 90.2644 252.854C93.9985 252.623 97.2132 255.463 97.4444 259.197L97.4526 259.33Z" fill="#2F7A50"/>
<path d="M139.916 253.849C139.787 251.768 141.369 249.977 143.449 249.848C145.53 249.72 147.321 251.302 147.45 253.382L147.458 253.515C147.501 254.204 146.976 254.798 146.287 254.84L141.249 255.152C140.56 255.195 139.966 254.671 139.924 253.982L139.916 253.849Z" fill="white"/>
<path d="M139.924 253.981C139.964 254.627 140.488 255.129 141.121 255.154L141.249 255.153L146.287 254.841L146.414 254.826C146.998 254.73 147.436 254.234 147.459 253.643L147.458 253.515L147.45 253.382C147.325 251.367 145.64 249.819 143.644 249.841L143.45 249.848C141.369 249.977 139.787 251.768 139.916 253.849L139.924 253.981ZM150.452 253.33C150.597 255.673 148.815 257.69 146.472 257.835L141.434 258.147C139.091 258.292 137.075 256.509 136.93 254.167L136.921 254.034C136.69 250.3 139.53 247.085 143.264 246.854C146.998 246.623 150.213 249.463 150.444 253.197L150.452 253.33Z" fill="#2F7A50"/>
<path d="M97.9155 253.849C97.7868 251.768 99.3689 249.977 101.449 249.848C103.53 249.72 105.321 251.302 105.45 253.382L105.458 253.515C105.501 254.204 104.976 254.798 104.287 254.84L99.249 255.152C98.5598 255.195 97.9664 254.671 97.9238 253.982L97.9155 253.849Z" fill="white"/>
<path d="M97.9239 253.981C97.9639 254.627 98.4876 255.129 99.1207 255.154L99.2488 255.153L104.287 254.841L104.414 254.826C104.998 254.73 105.436 254.234 105.459 253.643L105.458 253.515L105.45 253.382C105.325 251.367 103.64 249.819 101.644 249.841L101.45 249.848C99.3692 249.977 97.7869 251.768 97.9157 253.849L97.9239 253.981ZM108.452 253.33C108.597 255.673 106.815 257.69 104.472 257.835L99.4341 258.147C97.0913 258.292 95.0746 256.509 94.9296 254.167L94.9214 254.034C94.6903 250.3 97.5302 247.085 101.264 246.854C104.998 246.623 108.213 249.463 108.444 253.197L108.452 253.33Z" fill="#2F7A50"/>
<path d="M150.916 259.849C150.787 257.768 152.369 255.977 154.449 255.848C156.53 255.72 158.321 257.302 158.45 259.382L158.458 259.515C158.501 260.205 157.976 260.798 157.287 260.841L152.249 261.152C151.56 261.195 150.966 260.671 150.924 259.982L150.916 259.849Z" fill="white"/>
<path d="M150.924 259.981C150.964 260.627 151.488 261.129 152.121 261.154L152.249 261.153L157.287 260.841L157.414 260.826C157.998 260.73 158.436 260.234 158.459 259.643L158.458 259.515L158.45 259.382C158.325 257.367 156.64 255.819 154.644 255.841L154.45 255.848C152.369 255.977 150.787 257.768 150.916 259.849L150.924 259.981ZM161.452 259.33C161.597 261.673 159.815 263.69 157.472 263.835L152.434 264.147C150.091 264.292 148.075 262.509 147.93 260.167L147.921 260.034C147.69 256.3 150.53 253.085 154.264 252.854C157.998 252.623 161.213 255.463 161.444 259.197L161.452 259.33Z" fill="#2F7A50"/>
<path d="M108.916 259.849C108.787 257.768 110.369 255.977 112.449 255.848C114.53 255.72 116.321 257.302 116.45 259.382L116.458 259.515C116.501 260.205 115.976 260.798 115.287 260.841L110.249 261.152C109.56 261.195 108.966 260.671 108.924 259.982L108.916 259.849Z" fill="white"/>
<path d="M108.924 259.981C108.964 260.627 109.488 261.129 110.121 261.154L110.249 261.153L115.287 260.841L115.414 260.826C115.998 260.73 116.436 260.234 116.459 259.643L116.458 259.515L116.45 259.382C116.325 257.367 114.64 255.819 112.644 255.841L112.45 255.848C110.369 255.977 108.787 257.768 108.916 259.849L108.924 259.981ZM119.452 259.33C119.597 261.673 117.815 263.69 115.472 263.835L110.434 264.147C108.091 264.292 106.075 262.509 105.93 260.167L105.921 260.034C105.69 256.3 108.53 253.085 112.264 252.854C115.998 252.623 119.213 255.463 119.444 259.197L119.452 259.33Z" fill="#2F7A50"/>
</g>
</g>
<defs>
<clipPath id="clip0_1_509">
<rect width="249" height="264" fill="white"/>
</clipPath>
</defs>
</svg>
